<svg xmlns="http://www.w3.org/2000/svg" xmlns:xlink="http://www.w3.org/1999/xlink" viewBox="0 0 50 50"><defs><clipPath id="clip-path"><circle id="SVGID" cx="25" cy="25" r="24.74" fill="none"/></clipPath><clipPath id="clip-path-2"><path id="SVGID-2" data-name="SVGID" d="M87.71.37A24.63,24.63,0,1,1,63.08,25,24.64,24.64,0,0,1,87.71.37Z" fill="none" clip-rule="evenodd"/></clipPath></defs><g id="OBJECTS"><circle cx="25" cy="25" r="24.74" fill="#5e8fb1"/><g clip-path="url(#clip-path)"><path d="M47.64,8.05c-2.38.79-5.52,2.06-5.82,4.94a7.42,7.42,0,0,0,2.64,6.51c1.09,1.05,3.43,2.77,3.23,4.54-.23,2-2.63,3.27-3.23,5.2-.89,2.9-.15,5.5-.18,8.43,0,.85-1,3.77-.2,4.35s2.2-.6,2.75-1.07a20.12,20.12,0,0,0,5-6c4.42-8.52,4.61-16.17-.64-24.63ZM16.24,19.38c-.86-1.74-2.41-2.66-3.57-4.6-.85-1.43-1-3.19-2-4.58S8.47,8.05,8.17,6.28c-.39-2.31,1.7-4.79,2.21-7l12.25-2A11.25,11.25,0,0,1,24.51.06a12.3,12.3,0,0,1,.95,2.49C26.6,7,21.68,7.81,19.22,10.67c-1,1.16-1.17,2.66-1.83,4C17,15.53,15.8,16.93,16,18c0,.27.14.78.29,1.38a6.18,6.18,0,0,1,.56,1.89.77.77,0,0,1,0,.15,4.86,4.86,0,0,0,1.35,2.43c1.81,1,4,0,5.88.13,2.7.13,6.08,2,6.74,4.8s-2.66,4.45-3.67,6.64c-1.87,4.06,1.68,7.84-1.86,11.79-1,1.16-2.33,2-3.45,3.1a17.58,17.58,0,0,0-1.35,1.38s-.48.61-.5.6c-.9-.73-1.06-2.54-1.34-3.63A23.51,23.51,0,0,1,17.68,43c0-2,.43-4.47-.47-6.35-1.59-3.3-6.12-4.77-5.72-9,.31-3.29,5.65-2.86,5.33-6.3C16.59,20.73,16.39,20,16.24,19.38Z" fill="#7bc4a9" fill-rule="evenodd"/><path d="M32-5.38c3.33,2.26,5,7.17,6.06,10.77,4.45,14.52-.25,28.88-8.61,41-3.08,4.48-6.64,9.39-11.64,11.91A18.07,18.07,0,0,1,12,60.05c-.3,0-3.51.26-2.28.69,5.52,1.95,12.76-.61,18.09-2A41.73,41.73,0,0,0,56.08,34c6-15.32,3.27-35-13.67-41.79A32.41,32.41,0,0,0,32-10.12" fill-rule="evenodd" opacity="0.11"/></g><path d="M22.08,8.09s-3,.72-4,1.16a18.78,18.78,0,0,0-7,5.4,14,14,0,0,0-2.23,3.17c-.43.83-1.16,2.5-1.2,2.5a17.51,17.51,0,0,1-.08-3.21,11.62,11.62,0,0,1,1.55-4.23,13,13,0,0,1,5.57-5.31A7.6,7.6,0,0,1,22.08,8.09Zm-14.46,17c.88-.14,1.1-1.05,1.16-1.51a1.6,1.6,0,0,0-1.85-1.75,1.82,1.82,0,0,0-1.25,2.31A1.54,1.54,0,0,0,7.62,25.13Z" fill="#fff" fill-rule="evenodd" opacity="0.5"/><g clip-path="url(#clip-path-2)"><path d="M57.23,11.07c7.16,3.25,16.45,2.68,24.14,2.92,5.62.17,11.45.2,17,.85A91.28,91.28,0,0,1,108,16.46a51.94,51.94,0,0,1,5,1.37c1.48.51,12.4,4.36,5,5.16a18.85,18.85,0,0,1-3.28-.1c-6.8-.75-13.53-3.25-20.4-3.19-2.24,0-6.5-.48-8.51,1-.4.28,0,1.35-.24,1.81-.74,1.31-2.38,1.69-3.76,1.89-2.72.4-5.36-.25-8.08-.17-.56,0-2.57-.17-3,.42-1.1,1.43,3.74,3.16,4.4,3.33,4.54,1.16,9,1,13.54,2.35.38.1,5.34,1.79,5.29,1.84-1.75,1.66-6,1.09-8.17,1.19-3.34.16-6.68.75-10,.12-4.2-.8-7.71-2.48-12.09-2.52-1.31,0-9.56-.33-8.31,2.93,1.52,3.94,9.51,4.09,13,4.42,12.91,1.21,25.75-1.78,38.76-.55a86.59,86.59,0,0,1,12.3,2c.23.06,3.95,1.07,3.78,1.46-1,2.19-4.33,2.69-6.41,3.08s-6.46,1.52-8.68.82A24.06,24.06,0,0,0,100,43.75c-5.69.19-11.14.57-16.84.08-2.77-.24-5.58-1.29-8.34-1.22-3.33.09-6.21,2.44-8.59,2.45-5.31,0-16-2.79-19.19-7.76-2-3.14-2.37-8.32-2.15-11.9.8-13,11.63-21.35,24.23-19.95,4.37.48,8.19,3.12,12.57,3.36,3,.16,6-1.14,9-1.19,6.39-.12,12.42,1.11,18.65,2.28.75.14,5.09.44,4.61-1.28-.6-2.21-4.07-2.53-5.9-2.7-6.52-.6-12.87-1.13-19.35-2-3.81-.54-8-1.07-11.41-3-2.73-1.61-4.49-5-7.61-5.93-6.61-2-18.74,2.68-22.75,8.2-2.2,3-2.83,7.41-3.78,11" fill="#9e3a37" fill-rule="evenodd"/></g></g></svg>