<svg xmlns="http://www.w3.org/2000/svg" xmlns:xlink="http://www.w3.org/1999/xlink" viewBox="0 0 50 50"><defs><clipPath id="clip-path"><path id="SVGID" d="M25,.13A24.87,24.87,0,1,1,.13,25,24.89,24.89,0,0,1,25,.13Z" fill="none" clip-rule="evenodd"/></clipPath></defs><g id="OBJECTS"><path d="M25,.13A24.87,24.87,0,1,1,.13,25,24.89,24.89,0,0,1,25,.13Z" fill="#f0c686" fill-rule="evenodd"/><g clip-path="url(#clip-path)"><path d="M-6,7.12C11.3,6.18,29,8,46.12,9.72a156.61,156.61,0,0,1,18,2.68c1.63.36,3.22.77,4.83,1.24.63.19,1.26.37,1.9.54.34.1,1.38.28,1,.24-10.52-1.05-21.23-.19-31.8-.47-9.23-.24-18.38-1.51-27.62-1.48A176.6,176.6,0,0,0-8.17,14c-2.35.28-4.72.5-7.06.86-.06,0-3.39.72-3.35.78,2.17,3.58,12,3.21,15.58,3.29,15.05.33,30.12,2.3,45.18,2.93A171.65,171.65,0,0,1,60,23.21a31,31,0,0,1,5.45,1.41l2.2.75c.27.1,1.07.15.81.28C62.1,28.94,51.9,27,45,26.85c-14.54-.4-28.87-.2-43.39-1.15-4.87-.31-9.67-.46-14.55-.42-.68,0-5.28-.42-5.24.93.11,4.26,9.24,5.63,12.08,6,13.86,1.87,28.16-1,42.12-.25a115.17,115.17,0,0,1,13.38,1.14c1.59.28,3.18.56,4.77.87.68.13,2.64,0,2,.39-.91.55-3.27.21-4.31.21-3.55,0-7.06.3-10.6.37-14,.29-28.2-.23-42.17-1.23a112.5,112.5,0,0,0-13.74-.25c-.47,0-3.58-.13-3.63.72-.22,4.25,8,5.66,10.86,5.83A60,60,0,0,0,7.9,38.7c.9-.19,4.9-1.86,5.74-1.49a41.16,41.16,0,0,0,22.53,2.57c.48-.08-1,.12-1.45.19s-2.29.37-2.73.47c-2.1.46-4.16,1.12-6.26,1.57-8.5,1.84-16.68.05-25.09.89C-.53,43-7,43.7-5.11,45.76c3,3.22,9.53,2.91,13.5,2.53,11-1.06,21.93-3,33-1.84,1.31.14,2.4.25,3.7.49,2.32.43,12.13,2,8.75,6.52-1.67,2.23-5,2.83-7.55,3.29C39.88,57.89,33.05,58,26.54,58.24,14,58.78.41,58.92-11.17,53.3c-3.31-1.6-7.12-3.67-9.35-6.71-2-2.69-2.4-6.58-2.44-9.8C-23.13,22.92-10.25,13-1.34,4A27.65,27.65,0,0,1,10.82-3.41" fill="#af6432" fill-rule="evenodd"/><path d="M3.2,2.75C8,2.87,12.62,4,17.35,4.37c6.58.5,13.2.35,19.75,1.07a84.39,84.39,0,0,1,11.51,2c1.19.29,2.38.61,3.56,1,.59.17,2.26.3,1.73.6-3.62,2.11-10.76.89-14.73.79-11.7-.28-23.4-1.68-35.08-1.83A25.4,25.4,0,0,0-6.09,9.58c-1,.41-3.48,1.15-2.86,2.71,1.63,4,9.46,3.45,12.76,3.7,12.26.92,24.54,1.32,36.8,2.31,4.35.35,8.65,1.2,13,1.64,1.51.16,3,.4,4.49.66.61.11,2.36.11,1.82.4-4.31,2.23-11.92.35-16.55.34-14.9,0-29.92-1.59-44.81-.9-4.84.23-9.56.79-14,2.74-.72.31-3.23,1.22-3.08,2.34.24,1.69,2.31,2.43,3.72,2.81a35.06,35.06,0,0,0,9.91.78c14.57-.42,29-.93,43.54-.4,4.82.18,9.63.56,14.46.7,1.69.06,3.39.18,5.08.33.66.06,2.62,0,2,.17-5.23,1.1-10.94.5-16.25.93-9,.73-18,2-27,2.16-7.79.1-15.58-.72-23.35-.53-5.15.12-10.49.44-15.42,2.09-1.18.4-4.22,1.34-4.09,3.08s2.09,2.68,3.41,3.22C-19.11,42.31-14.73,42.15-11,42c16.71-.78,33-4.26,49.81-3.9,5.11.1,10.21.15,15.31.44.19,0,3.72.1,3.77.44s-.77.48-1.19.67a23.36,23.36,0,0,1-6.05,1.52c-7.24,1.1-14.73.21-22,.39-11.95.3-23.72-1-35.69-.36-3.33.19-10.44,1.69-13.36-.84-3.69-3.18.12-11,1.5-14.48,1.75-4.38,2.86-9.23,5.41-13.24,4.9-7.72,15.3-12.66,24-14" fill="#755037" fill-rule="evenodd"/><path d="M32-5.54c3.36,2.27,5,7.21,6.1,10.82,4.47,14.6-.25,29-8.65,41.26-3.1,4.51-6.69,9.45-11.71,12a18.51,18.51,0,0,1-5.82,1.72c-.3,0-3.53.25-2.29.69,5.55,2,12.83-.61,18.19-2A42,42,0,0,0,56.25,34.06c6-15.4,3.28-35.18-13.74-42A32.82,32.82,0,0,0,32.05-10.3" fill-rule="evenodd" opacity="0.11"/></g><path d="M22.06,8s-3,.73-4,1.17a18.82,18.82,0,0,0-7,5.43,14.38,14.38,0,0,0-2.24,3.18c-.43.84-1.16,2.52-1.21,2.51a18.57,18.57,0,0,1-.08-3.22A11.85,11.85,0,0,1,9,12.82a13.11,13.11,0,0,1,5.6-5.34A7.67,7.67,0,0,1,22.06,8ZM7.53,25.13c.88-.14,1.1-1.06,1.16-1.51a1.62,1.62,0,0,0-1.86-1.77,1.83,1.83,0,0,0-1.25,2.33A1.55,1.55,0,0,0,7.53,25.13Z" fill="#fff" fill-rule="evenodd" opacity="0.5"/></g></svg>