<svg xmlns="http://www.w3.org/2000/svg" xmlns:xlink="http://www.w3.org/1999/xlink" viewBox="0 0 50 50"><defs><clipPath id="clip-path"><path id="SVGID" d="M25,.37A24.63,24.63,0,1,1,.37,25,24.65,24.65,0,0,1,25,.37Z" fill="none" clip-rule="evenodd"/></clipPath><clipPath id="clip-path-2"><path id="SVGID-2" data-name="SVGID" d="M86.49.13A24.87,24.87,0,1,1,61.62,25,24.88,24.88,0,0,1,86.49.13Z" fill="none" clip-rule="evenodd"/></clipPath></defs><g id="OBJECTS"><path d="M25,.37A24.63,24.63,0,1,1,.37,25,24.65,24.65,0,0,1,25,.37Z" fill="#b44c47" fill-rule="evenodd"/><g clip-path="url(#clip-path)"><path d="M-5.48,11.07C1.68,14.32,11,13.75,18.66,14c5.62.17,11.45.2,17,.85a90.65,90.65,0,0,1,9.55,1.62,51.36,51.36,0,0,1,5,1.37c1.48.51,12.4,4.36,5,5.16a18.81,18.81,0,0,1-3.28-.1c-6.8-.75-13.53-3.25-20.4-3.19-2.24,0-6.5-.48-8.51,1-.4.28,0,1.35-.24,1.81-.74,1.31-2.38,1.69-3.77,1.89-2.72.4-5.35-.25-8.07-.17-.56,0-2.57-.17-3,.42-1.11,1.43,3.74,3.16,4.4,3.33,4.54,1.16,9,1,13.53,2.35.38.1,5.35,1.79,5.3,1.84-1.75,1.66-6,1.09-8.17,1.19-3.34.16-6.69.75-10,.12C8.86,32.64,5.35,31,1,30.92c-1.31,0-9.56-.33-8.31,2.93,1.51,3.94,9.51,4.09,13,4.42,12.91,1.21,25.75-1.78,38.76-.55a86.59,86.59,0,0,1,12.3,2c.23.06,4,1.07,3.78,1.46-1,2.19-4.33,2.69-6.42,3.08s-6.46,1.52-8.67.82a24.12,24.12,0,0,0-8.14-1.32c-5.69.19-11.13.57-16.84.08-2.76-.24-5.57-1.29-8.33-1.22-3.34.09-6.21,2.44-8.59,2.45-5.31,0-16-2.79-19.19-7.76-2-3.14-2.37-8.32-2.15-11.9.8-13,11.63-21.35,24.22-19.95,4.37.48,8.2,3.12,12.58,3.36,3,.16,6-1.14,9-1.19C34.36,7.5,40.39,8.73,46.62,9.9c.75.14,5.08.44,4.61-1.28-.6-2.21-4.07-2.53-5.9-2.7-6.52-.6-12.87-1.13-19.35-2-3.81-.54-8-1.07-11.41-3C11.84-.78,10.08-4.16,7-5.1c-6.61-2-18.74,2.68-22.75,8.2-2.21,3-2.83,7.41-3.78,11" fill="#9e3a37" fill-rule="evenodd"/><path d="M32-5.25C35.27-3,36.89,1.89,38,5.47c4.42,14.46-.25,28.76-8.57,40.87-3.08,4.46-6.62,9.35-11.6,11.86a18.19,18.19,0,0,1-5.77,1.7c-.29,0-3.49.26-2.27.69,5.5,1.94,12.71-.61,18-2A41.58,41.58,0,0,0,56,34c6-15.26,3.25-34.85-13.61-41.62A32.49,32.49,0,0,0,32-10" fill-rule="evenodd" opacity="0.11"/></g><path d="M22.09,8.16a41.69,41.69,0,0,0-4,1.16,18.53,18.53,0,0,0-7,5.38,13.8,13.8,0,0,0-2.22,3.15c-.43.83-1.16,2.49-1.2,2.49a17.32,17.32,0,0,1-.08-3.19,11.51,11.51,0,0,1,1.55-4.22A13,13,0,0,1,14.7,7.64,7.59,7.59,0,0,1,22.09,8.16Zm-14.4,17c.88-.14,1.1-1.05,1.16-1.5A1.6,1.6,0,0,0,7,21.88a1.81,1.81,0,0,0-1.24,2.31A1.53,1.53,0,0,0,7.69,25.13Z" fill="#fff" fill-rule="evenodd" opacity="0.5"/><g clip-path="url(#clip-path-2)"><path d="M55.54,7.12c17.25-.94,34.93.9,52.07,2.6a156.61,156.61,0,0,1,18,2.68c1.63.36,3.22.77,4.83,1.24.63.19,1.26.37,1.9.54.34.1,1.38.28,1,.24-10.52-1.05-21.23-.19-31.8-.47-9.23-.24-18.37-1.51-27.62-1.48A176.6,176.6,0,0,0,53.32,14c-2.35.28-4.72.5-7.06.86-.06,0-3.39.72-3.35.78,2.17,3.58,12.05,3.21,15.58,3.29,15.05.33,30.13,2.3,45.18,2.93a171.65,171.65,0,0,1,17.85,1.36A31,31,0,0,1,127,24.62l2.2.75c.27.1,1.07.15.81.28-6.39,3.29-16.58,1.39-23.45,1.2-14.54-.4-28.87-.2-43.39-1.15-4.87-.31-9.67-.46-14.55-.42-.68,0-5.28-.42-5.24.93.11,4.26,9.24,5.63,12.08,6,13.87,1.87,28.16-1,42.12-.25a115.17,115.17,0,0,1,13.38,1.14c1.59.28,3.18.56,4.77.87.68.13,2.64,0,2,.39-.91.55-3.27.21-4.31.21-3.55,0-7.06.3-10.6.37-14,.29-28.2-.23-42.17-1.23a112.5,112.5,0,0,0-13.74-.25c-.46,0-3.58-.13-3.63.72-.21,4.25,8,5.66,10.86,5.83A60,60,0,0,0,69.39,38.7c.9-.19,4.91-1.86,5.75-1.49a41.12,41.12,0,0,0,22.52,2.57c.48-.08-1,.12-1.45.19s-2.29.37-2.73.47c-2.1.46-4.16,1.12-6.26,1.57-8.5,1.84-16.68.05-25.09.89-1.17.12-7.66.8-5.75,2.86,3,3.22,9.53,2.91,13.5,2.53,11-1.06,21.93-3,33-1.84,1.31.14,2.4.25,3.7.49,2.32.43,12.13,2,8.75,6.52-1.67,2.23-5,2.83-7.55,3.29C101.37,57.89,94.55,58,88,58.24c-12.56.54-26.13.68-37.71-4.94C47,51.7,43.21,49.63,41,46.59c-2-2.69-2.4-6.58-2.44-9.8C38.37,22.92,51.24,13,60.15,4A27.65,27.65,0,0,1,72.31-3.41" fill="#af6432" fill-rule="evenodd"/><path d="M64.7,2.75c4.75.12,9.41,1.27,14.14,1.62,6.58.5,13.2.35,19.75,1.07a84.39,84.39,0,0,1,11.51,2c1.2.29,2.38.61,3.56,1,.59.17,2.26.3,1.74.6-3.63,2.11-10.77.89-14.73.79C89,9.48,77.26,8.08,65.58,7.93A25.4,25.4,0,0,0,55.4,9.58c-1,.41-3.48,1.15-2.85,2.71,1.62,4,9.45,3.45,12.75,3.7,12.26.92,24.55,1.32,36.8,2.31,4.35.35,8.65,1.2,13,1.64,1.51.16,3,.4,4.49.66.61.11,2.37.11,1.82.4-4.31,2.23-11.92.35-16.55.34-14.9,0-29.92-1.59-44.81-.9-4.84.23-9.56.79-14,2.74-.72.31-3.23,1.22-3.07,2.34.23,1.69,2.3,2.43,3.71,2.81a35.06,35.06,0,0,0,9.91.78c14.57-.42,29-.93,43.54-.4,4.82.18,9.64.56,14.46.7,1.69.06,3.39.18,5.08.33.66.06,2.62,0,2,.17-5.23,1.1-10.94.5-16.25.93-9,.73-18,2-27,2.16-7.79.1-15.57-.72-23.35-.53-5.15.12-10.49.44-15.42,2.09-1.17.4-4.22,1.34-4.09,3.08s2.09,2.68,3.41,3.22c3.53,1.45,7.92,1.29,11.65,1.11,16.71-.78,33-4.26,49.81-3.9,5.11.1,10.21.15,15.31.44.2,0,3.72.1,3.77.44s-.77.48-1.19.67a23.36,23.36,0,0,1-6,1.52c-7.24,1.1-14.73.21-22,.39-12,.3-23.72-1-35.7-.36-3.33.19-10.44,1.69-13.36-.84-3.69-3.18.13-11,1.5-14.48,1.75-4.38,2.86-9.23,5.41-13.24,4.9-7.72,15.3-12.66,24-14" fill="#755037" fill-rule="evenodd"/></g></g></svg>