<svg xmlns="http://www.w3.org/2000/svg" xmlns:xlink="http://www.w3.org/1999/xlink" viewBox="0 0 50 50"><defs><clipPath id="clip-path"><path id="SVGID" d="M25,.21A24.79,24.79,0,1,1,.21,25,24.8,24.8,0,0,1,25,.21Z" fill="none" clip-rule="evenodd"/></clipPath></defs><g id="OBJECTS"><path d="M25,.21A24.79,24.79,0,1,1,.21,25,24.8,24.8,0,0,1,25,.21Z" fill="#bb9560" fill-rule="evenodd"/><g clip-path="url(#clip-path)"><path d="M19.68,13.25c3.49,1.85,5.43-2.63,3.13-5-2-2-5.35-.63-4.76,2.25Zm11.77,5.63c1.52-1.78,4.82-1.44,7.94.07,2.35,1.14,1.08,6.18-.64,7.52-1.17.92-3.32.35-4.63.08a3.78,3.78,0,0,1-2.49-1.28c-1.18-1.66-1.22-1.86-1.15-4A9.71,9.71,0,0,1,31.45,18.88Zm-24.2,0c4.59-.22,4.54,2.88,5.56,6.49a15.15,15.15,0,0,0,2.68,4.78c.44.58,1.62,1.5,1.69,2.28.4,4.28-5.61,2.67-7.28,1.46C8,32.5,8.33,30.14,7.5,28.19,7,26.94,5.8,26.05,5.56,24.68a8.42,8.42,0,0,1,.23-3.46Zm40,18.72a6.59,6.59,0,0,1-1.08-.76c-1.63-1.41-1.78-5.38.35-6.53,1.73-.94,2.79,1.46,2.63,2.77a9,9,0,0,1-.66,2.39,8.18,8.18,0,0,1-1.24,2.13,7.25,7.25,0,0,0,.9.4H46.85C47,37.89,47.1,37.76,47.22,37.62Zm-19.6,5c-.35-1.73-1.58-5.08-.76-6.78,2.92-6,9.66,1.2,10.25,4.77.21,1.31.7,4.07.08,5.36-1.11,2.32-6.79,4.18-8.91,2.37-1.59-1.36-.14-3.28-.57-5.25Z" fill="#92713d" fill-rule="evenodd"/><path d="M30.87-7.38c3.49,1.5,4.65,8.53,5.4,11.65,3.52,14.71-.66,31.06-9.88,42.9C22.73,51.88,17,55,11.4,56.81a21.38,21.38,0,0,1-7.21,1.27c-.39,0,.66.42,1,.58,5.64,2.67,12.25,2.23,18.24,1.24,15.37-2.53,30.64-13.37,35.22-28.76C63,16.5,54.75-1.11,42.41-9.12" fill-rule="evenodd" opacity="0.13"/></g><path d="M24.56,7.6S21,8.47,19.74,9a22.39,22.39,0,0,0-8.36,6.46,16.71,16.71,0,0,0-2.66,3.77c-.51,1-1.39,3-1.44,3a21.14,21.14,0,0,1-.09-3.82A14,14,0,0,1,9,13.33,15.61,15.61,0,0,1,15.69,7,9.14,9.14,0,0,1,24.56,7.6ZM7.28,28c1.06-.16,1.32-1.25,1.39-1.8a1.93,1.93,0,0,0-2.21-2.1A2.19,2.19,0,0,0,5,26.83,1.83,1.83,0,0,0,7.28,28Z" fill="#fff" fill-rule="evenodd" opacity="0.5"/></g></svg>