<svg xmlns="http://www.w3.org/2000/svg" xmlns:xlink="http://www.w3.org/1999/xlink" viewBox="0 0 50 50"><defs><clipPath id="clip-path"><path id="SVGID" d="M28.85.65A24.65,24.65,0,1,1,.65,21.15,24.67,24.67,0,0,1,28.85.65Z" fill="none" clip-rule="evenodd"/></clipPath></defs><g id="OBJECTS"><path d="M28.85.65A24.65,24.65,0,1,1,.65,21.15,24.67,24.67,0,0,1,28.85.65Z" fill="#84bced" fill-rule="evenodd"/><g clip-path="url(#clip-path)"><path d="M-2.54,2.69C14.5,4.45,31.52,9,48.05,13.31a152.51,152.51,0,0,1,17.24,5.43c1.55.6,3,1.25,4.54,2,.59.28,1.18.56,1.78.82.32.15,1.31.48,1,.39-10.14-2.66-20.76-3.47-31.06-5.38-9-1.67-17.76-4.33-26.82-5.74A175.11,175.11,0,0,0-5.77,9.08c-2.35-.09-4.7-.25-7-.25-.06,0-3.42.17-3.4.24,1.57,3.84,11.3,5,14.75,5.63,14.69,2.66,29.14,6.93,43.78,9.88a169.75,169.75,0,0,1,17.26,4.1,30.59,30.59,0,0,1,5.12,2.22l2,1.08c.25.14,1,.31.75.4C60.72,34.61,51,31.17,44.33,29.92,30.16,27.27,16.1,25.25,2,22.07c-4.71-1.07-9.39-2-14.17-2.67-.67-.1-5.1-1.23-5.28.1-.55,4.18,8.18,6.94,10.9,7.76,13.28,4,27.72,3.41,41.28,6.28a112.27,112.27,0,0,1,12.92,3.19c1.52.52,3,1,4.54,1.59.64.24,2.57.44,1.94.7-1,.4-3.24-.3-4.26-.47-3.47-.57-7-.79-10.44-1.27-13.76-1.89-27.57-4.6-41.1-7.75A110.87,110.87,0,0,0-15,27.16c-.47-.05-3.5-.68-3.67.14-.87,4.13,6.93,6.78,9.72,7.39A59.59,59.59,0,0,0,6.14,35.76c.9,0,5.08-1.06,5.85-.56a40.85,40.85,0,0,0,21.65,6c.49,0-1,0-1.45,0s-2.29,0-2.74,0c-2.13.13-4.25.45-6.38.57-8.6.49-16.33-2.54-24.69-3-1.17-.07-7.63-.41-6.08,1.91C-5.26,44.28,1.18,45,5.13,45.23c11,.67,21.93.46,32.62,3.32,1.26.34,2.31.61,3.54,1.05,2.21.78,11.57,3.82,7.56,7.74-2,1.93-5.33,2-7.9,2-6.48.12-13.17-.87-19.6-1.6C9,56.37-4.33,54.4-14.8,47.11c-3-2.09-6.4-4.71-8.11-8-1.52-2.94-1.34-6.81-.87-10C-21.8,15.5-7.65,7.75,2.46.38A27.36,27.36,0,0,1,15.52-5" fill="#4869a3" fill-rule="evenodd"/><path d="M7.11-.16c4.63.85,9,2.7,13.6,3.78C27.07,5.12,33.57,6,39.88,7.72a84.61,84.61,0,0,1,11,3.71c1.13.48,2.24,1,3.34,1.5.55.26,2.17.64,1.61.86-3.88,1.5-10.68-.8-14.55-1.51C29.83,10.18,18.58,7,7.17,5.05A25.13,25.13,0,0,0-3,5.08c-1,.25-3.59.59-3.22,2.21,1,4.19,8.73,4.85,11.92,5.6,11.86,2.81,23.83,5.1,35.67,8,4.21,1,8.28,2.52,12.47,3.62,1.45.39,2.88.85,4.29,1.34.58.2,2.3.48,1.72.67C55.24,28,48.08,25,43.54,24.26,29,21.92,14.49,18.07-.19,16.44c-4.78-.53-9.48-.72-14.18.5-.75.2-3.35.69-3.37,1.82,0,1.69,1.88,2.73,3.2,3.32a34.72,34.72,0,0,0,9.59,2.3C9.38,26.23,23.55,28,37.74,30.74c4.69.92,9.35,2,14,2.93,1.65.32,3.29.7,4.93,1.11.63.16,2.55.43,1.9.47-5.3.26-10.8-1.21-16.06-1.61-9-.68-17.92-.79-26.82-2.08C8.1,30.45.6,28.45-7,27.42c-5.06-.67-10.34-1.2-15.42-.34-1.21.21-4.34.66-4.48,2.38s1.62,2.95,2.84,3.69c3.23,2,7.55,2.48,11.23,2.89,16.48,1.82,33,1,49.38,3.9,5,.89,10,1.72,14.92,2.8.19,0,3.62.68,3.62,1s-.83.36-1.27.48a23.15,23.15,0,0,1-6.16.55c-7.26,0-14.45-2.08-21.62-3-11.76-1.56-23.07-4.7-34.9-5.89-3.29-.33-10.48,0-12.95-2.89C-25,29.28-20,22.18-18.13,19c2.39-4,4.23-8.6,7.34-12.12,6-6.8,16.94-10,25.65-10" fill="#bbd8fd" fill-rule="evenodd"/><path d="M36.6-3.81C39.53-1.07,40.37,4,40.89,7.73,43,22.71,36.15,36.12,26,46.78,22.29,50.72,18,55,12.7,56.69a17.94,17.94,0,0,1-6,.78c-.3,0-3.5-.29-2.35.33,5.13,2.78,12.66,1.39,18.13.81A41.58,41.58,0,0,0,54.19,38.72C62.5,24.57,62.86,4.78,47.25-4.55a32.25,32.25,0,0,0-9.87-3.92" fill-rule="evenodd" opacity="0.11"/></g><path d="M24.76,7.9s-3.06.25-4.15.51a18.67,18.67,0,0,0-7.73,4.23,14.12,14.12,0,0,0-2.69,2.77c-.55.75-1.53,2.28-1.57,2.27A17.49,17.49,0,0,1,9,14.52a11.63,11.63,0,0,1,2.19-3.93,13,13,0,0,1,6.3-4.36A7.62,7.62,0,0,1,24.76,7.9ZM7.87,22.42c.89,0,1.25-.86,1.38-1.3a1.6,1.6,0,0,0-1.55-2,1.82,1.82,0,0,0-1.59,2.08A1.55,1.55,0,0,0,7.87,22.42Z" fill="#fff" fill-rule="evenodd" opacity="0.5"/></g></svg>