<svg xmlns="http://www.w3.org/2000/svg" xmlns:xlink="http://www.w3.org/1999/xlink" viewBox="0 0 50 50">
    <defs>
        <clipPath id="clip-path">
            <path id="SVGID" d="M-35.68.13A24.89,24.89,0,0,1-10.81,25,24.88,24.88,0,0,1-35.68,49.87,24.88,24.88,0,0,1-60.55,25,24.88,24.88,0,0,1-35.68.13Z" fill="none" clip-rule="evenodd"/>
        </clipPath>
        <clipPath id="clip-path-2">
            <path id="SVGID-2" data-name="SVGID" d="M16.83,11.64a14.45,14.45,0,1,1-5,19.8A14.45,14.45,0,0,1,16.83,11.64Z" fill="none" clip-rule="evenodd"/>
        </clipPath>
    </defs>
    <g id="OBJECTS">
        <g clip-path="url(#clip-path)">
            <path d="M-66.64,7.12c17.25-.94,34.93.9,52.08,2.6a156.61,156.61,0,0,1,18,2.68c1.63.36,3.22.77,4.82,1.24.64.19,1.27.37,1.91.54.34.1,1.38.28,1,.24C.72,13.37-10,14.23-20.56,14c-9.23-.24-18.38-1.51-27.62-1.48A176.6,176.6,0,0,0-68.85,14c-2.35.28-4.72.5-7.07.86,0,0-3.38.72-3.34.78,2.17,3.58,12,3.21,15.58,3.29,15,.33,30.12,2.3,45.18,2.93A172.07,172.07,0,0,1-.65,23.21,31.18,31.18,0,0,1,4.8,24.62L7,25.37c.28.1,1.07.15.82.28C1.42,28.94-8.78,27-15.64,26.85c-14.54-.4-28.87-.2-43.4-1.15-4.86-.31-9.66-.46-14.54-.42-.68,0-5.28-.42-5.25.93.11,4.26,9.25,5.63,12.09,6,13.86,1.87,28.16-1,42.11-.25a115,115,0,0,1,13.38,1.14c1.6.28,3.19.56,4.78.87.68.13,2.63,0,2,.39-.92.55-3.27.21-4.31.21-3.56,0-7.06.3-10.6.37-14,.29-28.2-.23-42.18-1.23a112.3,112.3,0,0,0-13.73-.25c-.47,0-3.59-.13-3.63.72-.22,4.25,8,5.66,10.85,5.83A60.11,60.11,0,0,0-52.78,38.7c.9-.19,4.9-1.86,5.74-1.49a41.13,41.13,0,0,0,22.52,2.57c.49-.08-1,.12-1.44.19s-2.29.37-2.73.47C-30.8,40.9-32.85,41.56-35,42c-8.49,1.84-16.67.05-25.08.89-1.17.12-7.67.8-5.75,2.86,3,3.22,9.53,2.91,13.5,2.53,11-1.06,21.93-3,33-1.84,1.31.14,2.4.25,3.69.49,2.32.43,12.13,2,8.75,6.52-1.66,2.23-5,2.83-7.55,3.29C-20.8,57.89-27.63,58-34.15,58.24c-12.55.54-26.12.68-37.7-4.94-3.31-1.6-7.12-3.67-9.35-6.71-2-2.69-2.4-6.58-2.44-9.8C-83.81,22.92-70.93,13-62,4A27.54,27.54,0,0,1-49.86-3.41" fill="#af6432" fill-rule="evenodd"/>
        </g>
        <path d="M16.83,11.64a14.45,14.45,0,1,1-5,19.8A14.45,14.45,0,0,1,16.83,11.64Z" fill="#f0c686" fill-rule="evenodd"/>
        <g clip-path="url(#clip-path-2)">
            <path d="M3.44,24.31c8.34-5.58,17.72-9.91,26.78-14.15a92.58,92.58,0,0,1,9.81-4c.92-.3,1.84-.57,2.78-.81l1.11-.29c.2-.06.77-.28.59-.19-5.57,2.59-10.67,6.2-16,9.2-4.68,2.62-9.63,4.7-14.23,7.45A102,102,0,0,0,4.37,28.4c-1.09.84-2.21,1.65-3.27,2.53,0,0-1.48,1.36-1.44,1.38,2.14,1.14,7-2,8.75-3C16,25,24.15,21.54,31.86,17.39a97.16,97.16,0,0,1,9.32-4.61,17.7,17.7,0,0,1,3.14-.92l1.32-.27c.16,0,.57-.25.49-.11C43.91,15,38.25,17.1,34.77,19c-7.39,4.12-14.48,8.47-22,12.3-2.53,1.29-5,2.64-7.39,4.11-.34.2-2.77,1.35-2.35,2,1.32,2.09,6.29.07,7.82-.59,7.48-3.17,13.78-8.84,21-12.62a65.69,65.69,0,0,1,7-3.39q1.32-.51,2.64-1c.38-.13,1.33-.76,1.14-.41-.29.55-1.57,1.08-2.09,1.39-1.79,1-3.44,2.24-5.19,3.33-6.91,4.3-14.15,8.25-21.43,11.89A66,66,0,0,0,7,40c-.23.15-1.83,1-1.6,1.44,1.16,2.19,5.67.46,7.15-.31A34.56,34.56,0,0,0,19.73,36c.39-.36,1.9-2.38,2.43-2.45a23.88,23.88,0,0,0,12-5.4l-.67.53c-.2.17-1,.86-1.22,1-.91.86-1.75,1.8-2.66,2.65-3.7,3.44-8.32,5-12.27,7.88-.55.41-3.59,2.67-2,3.13,2.46.72,5.63-1.37,7.5-2.74,5.19-3.79,10.06-8,16-10.71.7-.32,1.28-.59,2-.85,1.29-.48,6.65-2.61,6.31.66-.17,1.61-1.66,2.9-2.8,3.88a88.64,88.64,0,0,1-9.43,6.62c-6.12,4-12.86,8.08-20.31,8.71a14.46,14.46,0,0,1-6.66-.58,10.12,10.12,0,0,1-4.13-4.17C-.45,37.3,3,28.51,4.83,21.39a16,16,0,0,1,3.86-7.31" fill="#cdb26c" fill-rule="evenodd"/>
            <path d="M6.72,19.41c2.41-1.34,5.08-2.16,7.55-3.38C17.7,14.32,21,12.29,24.45,10.7a49.47,49.47,0,0,1,6.33-2.43c.69-.21,1.37-.4,2.07-.58.34-.08,1.21-.52,1-.21-1.18,2.13-5.11,3.64-7.12,4.77-5.93,3.32-12.2,6.1-18.08,9.49A14.79,14.79,0,0,0,4.1,25.58c-.37.5-1.4,1.61-.62,2.2,2,1.53,5.75-1.08,7.47-1.93C17.34,22.67,23.6,19.23,30,16.09c2.28-1.12,4.67-2,7-3,.8-.37,1.62-.69,2.44-1,.34-.13,1.22-.65,1-.34-1.49,2.39-5.85,3.71-8.17,5.08-7.45,4.4-15.42,8.08-22.65,12.84a22.64,22.64,0,0,0-6.2,5.54c-.27.37-1.26,1.56-.84,2.08.61.77,1.87.53,2.68.3A20.2,20.2,0,0,0,10.47,35c7.15-4.53,14.19-9.06,21.63-13.12,2.46-1.34,5-2.58,7.43-3.93q1.3-.72,2.64-1.35c.35-.17,1.32-.76,1-.5-2.28,2.1-5.32,3.5-7.84,5.29-4.29,3-8.38,6.35-12.88,9.1-3.85,2.36-8,4.26-11.82,6.66a30.55,30.55,0,0,0-7.08,5.62c-.47.55-1.71,1.92-1.13,2.75s1.84.72,2.66.6c2.2-.32,4.34-1.71,6.15-2.9C19.37,37.87,26.49,31.3,35,26.49c2.58-1.46,5.14-2.95,7.78-4.32.1-.05,1.89-1.05,2-.9s-.24.47-.39.69a13.55,13.55,0,0,1-2.58,2.55c-3.29,2.7-7.29,4.48-10.88,6.73C25,34.94,18.77,37.76,13,41.65c-1.61,1.09-4.72,3.94-6.93,3.55-2.79-.5-3.21-5.55-3.54-7.69-.43-2.7-1.31-5.46-1.23-8.21C1.45,24,5.18,18.44,9.12,15.2" fill="#a28e54" fill-rule="evenodd"/>
            <path d="M18.65,6.73c2.35.13,4.63,2.12,6.26,3.59,6.56,6,8.49,14.58,7.91,23.18-.21,3.18-.53,6.7-2.29,9.46a10.71,10.71,0,0,1-2.4,2.58c-.14.11-1.69,1.18-.94,1,3.36-.67,6.23-4.11,8.48-6.42A24.36,24.36,0,0,0,42.5,19.32C41,9.83,33.71.77,23.18,2.41a18.86,18.86,0,0,0-5.92,1.92" fill-rule="evenodd" opacity="0.11"/>
        </g>
        <path d="M17.7,16.44S16.41,17.7,16,18.23a11,11,0,0,0-1.9,4.8,8.48,8.48,0,0,0-.17,2.25c0,.55.16,1.61.14,1.62a10.92,10.92,0,0,1-1-1.59,6.92,6.92,0,0,1-.48-2.59,7.71,7.71,0,0,1,1.21-4.33A4.47,4.47,0,0,1,17.7,16.44ZM15.51,29.31a.91.91,0,0,0,.14-1.1.94.94,0,0,0-1.45-.33,1.05,1.05,0,0,0,.06,1.53A.89.89,0,0,0,15.51,29.31Z" fill="#fff" fill-rule="evenodd" opacity="0.5"/>
        <path d="M34.84,14.28C43,10.42,49,8.68,49.9,10.24,51.26,12.52,41.2,21,27.45,29.16S1.45,42.1.1,39.82c-.92-1.54,3.36-5.89,10.45-11.07.13.35.58,1.5.84,2-2.12,1.91-3.21,3.38-2.81,4.05.89,1.51,9-1.64,18-7s15.7-11,14.8-12.47c-.41-.7-2.37-.4-5.26.66A16.6,16.6,0,0,0,34.84,14.28Z" fill="#fff" fill-rule="evenodd" opacity="0.48"/>
    </g>
</svg>