<svg id="Calque_1" data-name="Calque 1" xmlns="http://www.w3.org/2000/svg" viewBox="0 0 600 600"><path d="M351.43,45l61.25,124.11,137,19.9c47.05,6.83,65.83,64.65,31.79,97.83l-99.1,96.61,23.39,136.4c8,46.85-41.14,82.59-83.22,60.46L300,515.88l-122.5,64.4c-42.08,22.13-91.26-13.61-83.22-60.46l23.39-136.4-99.1-96.61c-34-33.18-15.26-91,31.79-97.83l137-19.9L248.57,45C269.6,2.34,330.4,2.34,351.43,45Z" fill="#f9c228"/><path d="M581.44,286.81l-99.11,96.61,23.4,136.4c8,46.86-41.16,82.59-83.23,60.46L300,515.88l-122.5,64.4c-42.07,22.13-91.25-13.6-83.23-60.46l15.51-90.34c53.69,6.76,297.68,21.87,311.41-259.17L549.64,189C596.68,195.81,615.47,253.63,581.44,286.81Z" fill="#dda722"/><path d="M55.8,210l119.45-17a2.9,2.9,0,0,1,1.58,5.53C152.69,209,103.16,227.31,29.15,239a21.86,21.86,0,0,1,.23-2.68A31,31,0,0,1,55.8,210Z" fill="#ffe36c"/></svg>