<svg xmlns="http://www.w3.org/2000/svg" xmlns:xlink="http://www.w3.org/1999/xlink" viewBox="0 0 50 50"><defs><clipPath id="clip-path"><path id="SVGID" d="M31.18,43a20.29,20.29,0,0,1-25.6-12.2,19.54,19.54,0,0,1,12.5-25,20.27,20.27,0,0,1,25.6,12.2A19.55,19.55,0,0,1,31.18,43Z" fill="none" clip-rule="evenodd"/></clipPath></defs><g id="OBJECTS"><path d="M24.68,0c0,2.1.36,3.3,2.85,3.62,0,0,2.35-3.13,3.71-2.78-.56,2-.53,3.28,1.78,4.21,0,0,3.11-2.43,4.32-1.74C36.27,5.13,36,6.34,38,7.83c0,0,3.64-1.57,4.64-.6-1.53,1.49-2.14,2.58-.61,4.52,0,0,3.93-.59,4.63.6-1.87,1.05-2.75,2-1.79,4.21,0,0,4,.42,4.32,1.74-2.08.54-3.18,1.19-2.85,3.62,0,0,3.71,1.4,3.71,2.77-2.15,0-3.38.35-3.71,2.78,0,0,3.21,2.29,2.85,3.61-2.08-.54-3.36-.51-4.32,1.75,0,0,2.49,3,1.79,4.21-1.87-1-3.11-1.35-4.63.59,0,0,1.6,3.55.61,4.52-1.53-1.48-2.65-2.08-4.64-.59,0,0,.61,3.83-.61,4.51-1.07-1.81-2-2.68-4.32-1.74,0,0-.43,3.86-1.78,4.21-.56-2-1.22-3.09-3.71-2.77,0,0-1.44,3.61-2.85,3.61,0-2.1-.35-3.29-2.84-3.61,0,0-2.35,3.13-3.71,2.77.56-2,.53-3.27-1.79-4.21,0,0-3.1,2.43-4.31,1.74,1.07-1.81,1.38-3-.61-4.51,0,0-3.65,1.56-4.64.59,1.52-1.48,2.14-2.58.61-4.52,0,0-3.93.59-4.63-.59,1.86-1,2.75-1.95,1.79-4.21,0,0-4-.43-4.32-1.75,2.08-.54,3.17-1.19,2.84-3.61,0,0-3.7-1.41-3.7-2.78,2.15,0,3.38-.35,3.7-2.77,0,0-3.2-2.3-2.84-3.62,2.08.54,3.36.52,4.32-1.74,0,0-2.49-3-1.79-4.21,1.86,1.05,3.1,1.34,4.63-.6,0,0-1.6-3.55-.61-4.52,1.52,1.49,2.64,2.09,4.64.6,0,0-.61-3.84.61-4.52C13.1,5.13,14,6,16.34,5.05c0,0,.44-3.85,1.79-4.21.56,2,1.22,3.1,3.71,2.78C21.84,3.61,23.28,0,24.68,0Z" fill="#e06a37" fill-rule="evenodd"/><path d="M31.18,43a20.29,20.29,0,0,1-25.6-12.2,19.54,19.54,0,0,1,12.5-25,20.27,20.27,0,0,1,25.6,12.2A19.55,19.55,0,0,1,31.18,43Z" fill="#ecb74b" fill-rule="evenodd"/><g clip-path="url(#clip-path)"><path d="M28-4.16c1,0,2.14,1,2.74,1.64C33-.18,34,3.32,34.79,6.36a33.82,33.82,0,0,1-6.31,29.56,35.81,35.81,0,0,1-19,12,27.36,27.36,0,0,1-7.86.84c-.72,0-1.43,0-2.15-.09-.23,0-.54-.07-.78-.11s-.48-.13-.37-.06c1.39.9,2.88,1.73,4.34,2.51,6,3.18,12.49,3.89,19.2,3.64,8.23-.31,16.61-2.77,22.3-8.83,8.14-8.68,10.09-23.57,3.88-33.74C44.45,6.18,39,2.32,32.44-.21" fill="#eaab35" fill-rule="evenodd"/></g></g></svg>