<svg xmlns="http://www.w3.org/2000/svg" xmlns:xlink="http://www.w3.org/1999/xlink" viewBox="0 0 50 50"><defs><clipPath id="clip-path"><path id="SVGID" d="M11,18.48A15,15,0,1,1,19.49,38,15,15,0,0,1,11,18.48Z" fill="none" clip-rule="evenodd"/></clipPath><clipPath id="clip-path-2"><path id="SVGID-2" data-name="SVGID" d="M93.46.65a24.65,24.65,0,1,1-28.2,20.5A24.66,24.66,0,0,1,93.46.65Z" fill="none" clip-rule="evenodd"/></clipPath></defs><g id="OBJECTS"><path d="M11,18.48A15,15,0,1,1,19.49,38,15,15,0,0,1,11,18.48Z" fill="#78c6c5" fill-rule="evenodd"/><g clip-path="url(#clip-path)"><path d="M9.4,13.29c2-1.39,5.15-1.21,7.43-1,9.19.72,16.25,6.57,21.26,14,1.84,2.74,3.82,5.85,4.13,9.23a11.23,11.23,0,0,1-.32,3.65c0,.18-.64,2-.12,1.44,2.33-2.68,2.5-7.34,2.88-10.67A25.32,25.32,0,0,0,37,8.45C29.7,1.64,18-1.19,10.37,6.86a19.71,19.71,0,0,0-3.64,5.35" fill-rule="evenodd" opacity="0.11"/></g><path d="M18.49,37.51l.53.24c-.51,2.67-.49,4.39.17,4.65,1.52.6,5.86-6.78,9.68-16.47S34.56,7.89,33,7.29c-.59-.23-1.61.75-2.86,2.6l-.59-.18C31.51,6.46,33.12,4.63,34,5c1.72.68-.39,10.14-4.72,21.12S20,45.41,18.28,44.73C17.38,44.38,17.53,41.62,18.49,37.51Zm-1.31-.7.59.33c-1.38,5.55-1.62,9.39-.38,9.88,2.11.83,7.72-8.36,12.51-20.51s7-22.7,4.86-23.53c-1.15-.46-3.36,2.11-5.91,6.52l-.68-.19C31.49,3.18,34.45-.52,35.92.06c2.39.94-.08,12.88-5.51,26.65S18.63,50.88,16.24,49.94C14.7,49.33,15.18,44.13,17.18,36.81Z" fill="#fff" fill-rule="evenodd" opacity="0.41"/><path d="M14.8,21.87a24.56,24.56,0,0,0-.24,2.54,11.36,11.36,0,0,0,1.49,5.16,8.52,8.52,0,0,0,1.29,2c.37.43,1.16,1.21,1.14,1.24a11.19,11.19,0,0,1-1.82-.67,7.28,7.28,0,0,1-2.05-1.82A7.94,7.94,0,0,1,12.85,26,4.64,4.64,0,0,1,14.8,21.87Zm6.4,12c.12-.52-.35-.85-.59-1a1,1,0,0,0-1.41.66,1.12,1.12,0,0,0,1,1.22C21,34.75,21.13,34.15,21.2,33.83Z" fill="#fff" fill-rule="evenodd" opacity="0.5"/><g clip-path="url(#clip-path-2)"><path d="M62.07,2.69c17,1.76,34.06,6.31,50.58,10.62a152.67,152.67,0,0,1,17.25,5.43c1.54.6,3,1.25,4.54,2,.59.28,1.18.56,1.78.82.31.15,1.3.48,1,.39-10.13-2.66-20.76-3.47-31.06-5.38-9-1.67-17.76-4.33-26.81-5.74A175.11,175.11,0,0,0,58.84,9.08c-2.35-.09-4.7-.25-7.06-.25-.05,0-3.42.17-3.39.24,1.57,3.84,11.3,5,14.75,5.63,14.68,2.66,29.13,6.93,43.78,9.88a170.39,170.39,0,0,1,17.26,4.1,30.59,30.59,0,0,1,5.12,2.22l2,1.08c.25.14,1,.31.76.4-6.77,2.23-16.46-1.21-23.15-2.46-14.18-2.65-28.23-4.67-42.31-7.85-4.71-1.07-9.39-2-14.18-2.67-.66-.1-5.1-1.23-5.27.1-.56,4.18,8.18,6.94,10.9,7.76,13.28,4,27.72,3.41,41.27,6.28a111.76,111.76,0,0,1,12.92,3.19c1.52.52,3,1,4.54,1.59.65.24,2.58.44,1.94.7-1,.4-3.23-.3-4.25-.47-3.48-.57-7-.79-10.44-1.27C90.3,35.39,76.49,32.68,63,29.53a110.68,110.68,0,0,0-13.41-2.37c-.46-.05-3.49-.68-3.66.14-.88,4.13,6.93,6.78,9.72,7.39a59.55,59.55,0,0,0,15.13,1.07c.91,0,5.09-1.06,5.86-.56a40.8,40.8,0,0,0,21.65,6l-1.45,0c-.45,0-2.3,0-2.75,0-2.13.13-4.24.45-6.37.57-8.6.49-16.33-2.54-24.7-3-1.16-.07-7.63-.41-6.07,1.91,2.44,3.62,8.88,4.32,12.82,4.57,11,.67,21.94.46,32.63,3.32,1.26.34,2.31.61,3.54,1.05,2.21.78,11.57,3.82,7.56,7.74-2,1.93-5.34,2-7.91,2-6.47.12-13.17-.87-19.59-1.6C73.58,56.37,60.27,54.4,49.81,47.11c-3-2.09-6.4-4.71-8.12-8-1.51-2.94-1.33-6.81-.87-10C42.81,15.5,57,7.75,67.07.38A27.36,27.36,0,0,1,80.13-5" fill="#4869a3" fill-rule="evenodd"/><path d="M71.71-.16c4.64.85,9,2.7,13.6,3.78,6.36,1.5,12.87,2.38,19.18,4.1a84.61,84.61,0,0,1,11,3.71c1.12.48,2.24,1,3.34,1.5.55.26,2.17.64,1.6.86-3.87,1.5-10.67-.8-14.54-1.51C94.43,10.18,83.19,7,71.77,5.05a25.13,25.13,0,0,0-10.22,0c-1,.25-3.58.59-3.21,2.21,1,4.19,8.73,4.85,11.91,5.6,11.86,2.81,23.83,5.1,35.67,8,4.21,1,8.29,2.52,12.47,3.62,1.46.39,2.88.85,4.3,1.34.58.2,2.3.48,1.71.67-4.55,1.52-11.72-1.5-16.25-2.23-14.59-2.34-29.05-6.19-43.73-7.82-4.78-.53-9.49-.72-14.18.5-.75.2-3.35.69-3.37,1.82,0,1.69,1.88,2.73,3.2,3.32a34.65,34.65,0,0,0,9.58,2.3C74,26.23,88.15,28,102.35,30.74c4.69.92,9.34,2,14,2.93,1.66.32,3.3.7,4.93,1.11.64.16,2.56.43,1.91.47-5.3.26-10.8-1.21-16.07-1.61-9-.68-17.91-.79-26.82-2.08-7.63-1.11-15.13-3.11-22.77-4.14-5.06-.67-10.35-1.2-15.42-.34-1.22.21-4.34.66-4.49,2.38s1.63,2.95,2.84,3.69c3.23,2,7.55,2.48,11.24,2.89,16.47,1.82,33,1,49.37,3.9,5,.89,10,1.72,14.92,2.8.19,0,3.63.68,3.63,1s-.83.36-1.27.48a23.15,23.15,0,0,1-6.16.55c-7.26,0-14.46-2.08-21.63-3-11.75-1.56-23.06-4.7-34.89-5.89-3.29-.33-10.49,0-13-2.89C39.64,29.28,44.59,22.18,46.47,19c2.4-4,4.23-8.6,7.35-12.12,6-6.8,16.94-10,25.65-10" fill="#bbd8fd" fill-rule="evenodd"/></g></g></svg>