<svg xmlns="http://www.w3.org/2000/svg" xmlns:xlink="http://www.w3.org/1999/xlink" viewBox="0 0 50 50"><defs><clipPath id="clip-path"><path id="SVGID" d="M25,.22A24.78,24.78,0,1,1,.22,25,24.79,24.79,0,0,1,25,.22Z" fill="none" clip-rule="evenodd"/></clipPath></defs><g id="OBJECTS"><path d="M25,.22A24.78,24.78,0,1,1,.22,25,24.79,24.79,0,0,1,25,.22Z" fill="#c06932" fill-rule="evenodd"/><g clip-path="url(#clip-path)"><path d="M30,4.59c.67.49,1.28,1.07,2,1.54a1.92,1.92,0,0,1-1,3.6c-3.4.35-5.17-5-1.28-5.5ZM9.7,12.87c-2.26,1.65-1.16,5.51-1.29,8,0,.63-.68,4.11.08,3.63,1.06-.65,1.54-2.2,2.22-3.19,1.45-2.14,3.21-3.75,3.84-6.39.43-1.77-1.2-2.94-2.88-2.66A12.62,12.62,0,0,0,9.7,12.87Zm29.55,3.9c-.19,1.61,0,3.24-.17,4.86a15.29,15.29,0,0,1-.73,3.48c-.1.29-.54,1.11-.31,1.44.64.93,2.47.4,3.27,0,2.1-.95,2.23-2.5,3.41-4.14.61-.86,1.45-1.56,1.43-2.72-.07-2.55-3.21-6.82-5.79-4.19ZM24.9,24.64a7.06,7.06,0,0,0-.09,5.56c.66,1.37,2.55,3.16,2.49,4.77-.06,1.93-1.86,1.44-3.08,1.73-.78.18-1,1-1.85.45a6.43,6.43,0,0,1-2-2.66c-1-2-2.38-4.26-2.46-6.58-.06-1.85,1.12-3,2.23-4.36.51-.62.89-1.45,1.65-1.79,2.75-1.21,3.59,1.54,2.78,3.76l.32-.88.24-.66Zm5.78,17.28c0,1-.09,2.3.77,3,1.74,1.35,5.3-.67,5.41-2.76a2.93,2.93,0,0,0-.82-1.9c-.37-.47-.91-1.22-1.53-1.39-1.86-.5-3.72,1.59-4.1,3.14Z" fill="#a75127" fill-rule="evenodd"/><path d="M30.47-3.66c3.12,1.56,5,5.19,6.29,8.24,4.3,10.26,1.78,20.33-2.11,30.43a60.19,60.19,0,0,1-4.91,10.08c-2.61,4.24-6.4,7.86-11.33,9.14a10.87,10.87,0,0,1-4.91.19,13.43,13.43,0,0,1-1.56-.48c-.17-.06-.67-.29-.53-.17,2.47,2,6.49,2.88,9.52,3.56,18,4,34.46-10.41,37.92-27.56.94-4.69,1.18-9.81-.32-14.41-1.9-5.83-6.3-10.69-11.25-14.14A30.64,30.64,0,0,0,36.16-3.55" fill-rule="evenodd" opacity="0.07"/></g><path d="M21.67,8.57s-3,.72-4,1.14A18.46,18.46,0,0,0,10.8,15a14,14,0,0,0-2.19,3.11c-.42.82-1.14,2.47-1.19,2.47a18.19,18.19,0,0,1-.07-3.16,11.46,11.46,0,0,1,1.52-4.17,12.88,12.88,0,0,1,5.49-5.23A7.52,7.52,0,0,1,21.67,8.57ZM7.43,25.35c.86-.13,1.08-1,1.14-1.48a1.59,1.59,0,0,0-1.82-1.73,1.8,1.8,0,0,0-1.23,2.28A1.51,1.51,0,0,0,7.43,25.35Z" fill="#fff" fill-rule="evenodd" opacity="0.5"/></g></svg>